<svg version="1.1" id="Calque_1" xmlns="http://www.w3.org/2000/svg" x="0" y="0" viewBox="0 0 283.5 252.2" xml:space="preserve"><style>.st1{fill:#ffd500}</style><path class="st1" d="M26.3 252.2c-9.5 0-18-4.9-22.7-13.1-4.8-8.2-4.8-18 0-26.3L118.7 13.1C123.4 4.9 131.9 0 141.4 0s18 4.9 22.7 13.1l115.4 199.6c4.8 8.2 4.8 18 0 26.3s-13.2 13.1-22.7 13.1v-3.3 3.3l-230.5.1zM141.4 6.6c-7.1 0-13.5 3.7-17.1 9.9L9.2 216.1c-3.6 6.2-3.6 13.5 0 19.7 3.6 6.2 9.9 9.8 17 9.8l230.5-.1c7.1 0 13.5-3.7 17-9.9 3.6-6.2 3.6-13.5 0-19.7L158.5 16.4c-3.6-6.2-10-9.8-17.1-9.8z"/><path class="st1" d="M141.8 172.5c-4.8 0-8.8-3.9-8.8-8.8V66.4c0-4.8 3.9-8.8 8.8-8.8 4.8 0 8.8 3.9 8.8 8.8v97.4c-.1 4.8-4 8.7-8.8 8.7zM156.4 219.3c-3.4 10.4-7.8 2.6-13.3 2.4-7.4-.3-7.2 5.1-10.8-.3-3.2-4.9-3-5.8.4-8.8 2.9-2.7 2.9-7.7 10.7-7.1 5.1.4 6.2 4.2 9.1 6.8 3.6 3.2 4.9 4.1 3.9 7zM131 203.9c.4 3.3.2 6-3.2 6.5-2.1.3-4.2-2.2-4.6-5.5-.4-3.3.8-6 3.9-6.8 1.5-.5 3.5 2.5 3.9 5.8zM139.6 195.9c1.3 5-.5 5.9-2.6 6.8-2.7 1.1-4.7-1.2-5.5-4.4s.6-7.5 2.7-8c3.5-.8 4.5 2.4 5.4 5.6zM159.9 206.7c0 3.3-.9 4.9-3 4.9-2.6 0-4.8-1.4-4.8-4.7s.9-6.9 2.5-6.9c2.7 0 5.3 3.4 5.3 6.7zM150.2 196.8c.4 4.4-.6 6-4 6-2.8 0-4-2.7-4-6s.2-6 4-6c2.2 0 3.8 2.7 4 6z"/></svg>