<svg version="1.1" id="Calque_1" xmlns="http://www.w3.org/2000/svg" x="0" y="0" viewBox="0 0 159 214.5" xml:space="preserve"><style>.st2{display:inline;stroke:#0c1422;stroke-width:7.2144;stroke-linecap:round;stroke-miterlimit:10}.st2,.st3{fill:#ffd500}</style><path class="st3" d="M131.3 91.8c-2.2-24-21.9-43.2-46-44.8-13.8-.9-27 3.8-37.1 13.3-9.9 9.3-15.6 22.5-15.6 36.1 0 15 7 29.4 18.7 38.7.4 6.7.6 14.7.8 30.1 0 4.7 3.9 8.5 8.5 8.5h4.6c11.1 0 28.9-.2 38.1-.3h1c4.7-.1 8.5-3.9 8.5-8.7 0-3.1 0-6-.1-8.8-.1-7.9-.2-14.9.1-20.9 11.9-9.5 18.7-23.6 18.7-38.7 0-1.4-.1-2.9-.2-4.5zm-24.2 38.6-1.3 1-.1 1.7c-.4 6.6-.3 14.2-.2 23 0 2.8.1 5.7.1 8.7 0 .8-.6 1.4-1.4 1.4h-1c-10.6.1-32.8.3-42.6.2-.8 0-1.4-.6-1.4-1.4-.2-16.8-.4-24.9-.9-32l-.1-1.7-1.4-1c-10.7-7.9-17.1-20.6-17.1-34 0-11.8 4.8-22.8 13.4-30.8C61 58.1 71.2 54.1 82 54.1c.9 0 1.9 0 2.8.1 10.3.7 19.6 5.1 26.7 11.9 7 6.8 11.7 16.1 12.6 26.3 1.3 15-5 29.1-17 38zM104.8 188.6H59.9c-2 0-3.6-1.6-3.6-3.6s1.6-3.6 3.6-3.6h44.9c2 0 3.6 1.6 3.6 3.6.1 2-1.6 3.6-3.6 3.6zM98.8 201.5H65.9c-2 0-3.6-1.6-3.6-3.6s1.6-3.6 3.6-3.6h32.9c2 0 3.6 1.6 3.6 3.6s-1.6 3.6-3.6 3.6zM91.5 214.5H72.8c-2 0-3.6-1.6-3.6-3.6s1.6-3.6 3.6-3.6h18.8c2 0 3.6 1.6 3.6 3.6 0 1.9-1.7 3.6-3.7 3.6zM33.4 39.7c4.6 8.9-3.3 6.7-7 10.2-4.9 4.6-1.4 7.9-7.2 6.8-5.2-1.1-5.7-1.7-5.5-5.9.2-3.6-3.2-6.9 2.2-11.5 3.6-3 6.7-1.3 10.3-1.5 4.5-.4 5.9-.6 7.2 1.9zM7.1 46.2c2.4 1.9 4 3.8 2.2 6.2-1.3 1.6-4.2 1.3-6.6-.6S-.7 47.5.8 44.9c.6-1.2 3.9-.6 6.3 1.3zM7.4 35.5c4.1 2.4 3.5 4.1 2.7 6-1 2.5-3.8 2.3-6.4.7C1.1 40.6-.8 37 .3 35.3c1.7-2.7 4.5-1.3 7.1.2zM27.5 29.3c2.2 2.1 2.6 3.7 1.3 5.1-1.7 1.7-4 2.2-6.2.1s-3.9-5-2.9-6.1c1.7-1.7 5.6-1.2 7.8.9zM14.8 29.2c3.1 2.6 3.5 4.3 1.3 6.5-1.8 1.8-4.3.9-6.5-1.3-2.2-2.1-3.8-4-1.3-6.5 1.5-1.4 4.2-.7 6.5 1.3zM91.2 26.6c-3.1 9.5-7.1 2.4-12.1 2.2-6.8-.2-6.6 4.6-9.9-.3-2.9-4.5-2.8-5.3.3-8.1 2.7-2.4 2.6-7.1 9.7-6.5 4.7.4 5.6 3.9 8.3 6.2 3.4 3 4.5 3.9 3.7 6.5zM68 12.6c.4 3 .2 5.5-2.9 5.9-2 .2-3.8-2-4.2-5-.4-3 .7-5.4 3.6-6.3 1.3-.4 3.1 2.4 3.5 5.4zM75.8 5.3c1.2 4.6-.5 5.4-2.3 6.2-2.4 1-4.3-1.1-5-4.1-.7-3 .5-6.8 2.5-7.3 3.1-.7 4 2.2 4.8 5.2zM94.4 15.2c0 3-.8 4.5-2.7 4.5-2.4 0-4.4-1.3-4.4-4.3S88.1 9 89.6 9c2.4 0 4.8 3.1 4.8 6.2zM85.5 6.1c.3 4.1-.6 5.5-3.7 5.5-2.6 0-3.7-2.5-3.7-5.5S78.3.6 81.8.6c2.1 0 3.5 2.5 3.7 5.5zM145.2 61c-9.1 4.1-6.5-3.7-9.7-7.5-4.4-5.2-7.9-1.8-6.4-7.5 1.3-5.2 2.1-5.6 6.2-5.2 3.6.4 7-2.8 11.4 2.9 2.8 3.7.9 6.8.9 10.4 0 4.3.2 5.8-2.4 6.9zM140.1 34.4c-2 2.3-4 3.8-6.3 1.8-1.5-1.3-1.1-4.2.9-6.5s4.5-3.1 7-1.5c1.2.7.4 3.9-1.6 6.2zM150.8 35.3c-2.6 3.9-4.3 3.3-6.2 2.4-2.4-1.1-2.1-4-.3-6.4 1.7-2.5 5.4-4.2 7.1-3 2.6 1.7 1 4.4-.6 7zM155.9 55.7c-2.3 2-3.9 2.4-5.1 1-1.6-1.8-2-4.1.3-6.2 2.3-2 5.2-3.6 6.2-2.5 1.5 1.8.8 5.6-1.4 7.7zM156.7 43.1c-2.8 3-4.5 3.2-6.5 1-1.7-1.9-.6-4.4 1.6-6.4 2.3-2 4.2-3.5 6.5-1 1.4 1.5.5 4.1-1.6 6.4z"/></svg>