<svg id="Calque_1" data-name="Calque 1" xmlns="http://www.w3.org/2000/svg" viewBox="0 0 283.46 125.95"><defs><style>.cls-1{fill:#fafbfb}</style></defs><path class="cls-1" d="M148.57 33.29v22.35a3.54 3.54 0 0 1-.88 2.58 3.24 3.24 0 0 1-2.46.93 3.41 3.41 0 0 1-2.55-.93 3.58 3.58 0 0 1-.86-2.58V33.7c0-3.79-.75-6.54-2.22-8.3s-3.82-2.64-7-2.64a11.68 11.68 0 0 0-8.89 3.47 12.84 12.84 0 0 0-3.3 9.22v20.19q0 3.51-3.42 3.51a3.21 3.21 0 0 1-2.5-.93 3.66 3.66 0 0 1-.84-2.58V20.85a3.56 3.56 0 0 1 .84-2.55 3.18 3.18 0 0 1 2.42-.87 3.34 3.34 0 0 1 2.46.87 3.45 3.45 0 0 1 .88 2.55v4.08a12.92 12.92 0 0 1 4.75-5.2 16.88 16.88 0 0 1 9.13-2.47 16.66 16.66 0 0 1 8.06 1.76 10.8 10.8 0 0 1 4.79 5.3 22 22 0 0 1 1.59 8.97ZM167.63 1.04a4.66 4.66 0 0 0-3.29-1 4.71 4.71 0 0 0-3.26 1 3.88 3.88 0 0 0-1.17 3.05 4 4 0 0 0 1.17 3 4.48 4.48 0 0 0 3.26 1.14 4.43 4.43 0 0 0 3.29-1.14 4.08 4.08 0 0 0 1.12-3 3.93 3.93 0 0 0-1.12-3.05Z"/><path class="cls-1" d="M167.71 56.01a4 4 0 0 0 0-.71V21.19a3.62 3.62 0 0 0-.92-2.68 3.43 3.43 0 0 0-2.5-.91 3.24 3.24 0 0 0-2.5.91 3.86 3.86 0 0 0-.84 2.68v32.42a5.12 5.12 0 0 0 0 .69v37.37a13.14 13.14 0 0 0-4.33-5 16 16 0 0 0-9.38-2.74 17.46 17.46 0 0 0-9.47 2.53 16.86 16.86 0 0 0-6.26 7.27 26.27 26.27 0 0 0-2.2 11.22 26 26 0 0 0 2.2 11.13 16.88 16.88 0 0 0 6.26 7.3 17.16 17.16 0 0 0 9.47 2.6 15.9 15.9 0 0 0 9.48-2.84 13.53 13.53 0 0 0 4.38-5.21v4.33a3.66 3.66 0 0 0 .86 2.59 3.28 3.28 0 0 0 2.47.91 3.23 3.23 0 0 0 2.51-.91 3.75 3.75 0 0 0 .83-2.59Zm-8.07 57.33a11.42 11.42 0 0 1-11 7.18 11.29 11.29 0 0 1-9.09-4c-2.29-2.69-3.42-6.55-3.42-11.55a21 21 0 0 1 1.54-8.56 11.74 11.74 0 0 1 4.33-5.29 11.94 11.94 0 0 1 6.64-1.8 11.3 11.3 0 0 1 9.13 4q3.39 4 3.39 11.6a20.9 20.9 0 0 1-1.52 8.42ZM239.17 33.29v22.35a3.54 3.54 0 0 1-.88 2.58 3.35 3.35 0 0 1-2.54.93 3.26 3.26 0 0 1-2.46-.93 3.54 3.54 0 0 1-.88-2.58v-22c0-3.73-.63-6.46-1.92-8.22s-3.44-2.64-6.5-2.64a9.71 9.71 0 0 0-7.89 3.47q-2.86 3.48-2.87 9.38v20a3.5 3.5 0 0 1-.89 2.58 3.31 3.31 0 0 1-2.53.93 3.26 3.26 0 0 1-2.47-.93 3.58 3.58 0 0 1-.87-2.58v-22c0-3.73-.66-6.46-2-8.22s-3.46-2.64-6.46-2.64a9.71 9.71 0 0 0-7.89 3.47q-2.88 3.48-2.88 9.38v20q0 3.51-3.43 3.51a3.23 3.23 0 0 1-2.5-.93 3.65 3.65 0 0 1-.82-2.58V20.85a3.56 3.56 0 0 1 .82-2.55 3.21 3.21 0 0 1 2.42-.87 3.37 3.37 0 0 1 2.47.87 3.49 3.49 0 0 1 .87 2.55v4a13.38 13.38 0 0 1 4.22-5 14.16 14.16 0 0 1 8.47-2.55 13.33 13.33 0 0 1 8.37 2.47 11.21 11.21 0 0 1 3.87 5.69 13.85 13.85 0 0 1 4.6-5.53 15.39 15.39 0 0 1 9.06-2.71 14.58 14.58 0 0 1 7.54 1.76 10.69 10.69 0 0 1 4.46 5.3 22.94 22.94 0 0 1 1.51 9.01ZM281.8 24.14a10.94 10.94 0 0 0-5.09-5.16 19.35 19.35 0 0 0-8.71-1.72 30 30 0 0 0-6.84.84 32.57 32.57 0 0 0-7.26 2.67 3.33 3.33 0 0 0-1.46 1.33 3 3 0 0 0-.37 1.72 3.08 3.08 0 0 0 .58 1.54 2.36 2.36 0 0 0 1.34.87 2.92 2.92 0 0 0 2-.37 30.05 30.05 0 0 1 6.17-2.42 23.41 23.41 0 0 1 5.84-.76q4.77 0 6.85 2.3t2.15 7.47v2.59h-2.67a76.05 76.05 0 0 0-14.47 1.07c-3.54.73-6.06 2-7.59 3.68a10.3 10.3 0 0 0-2.3 7.09 11.17 11.17 0 0 0 1.91 6.35 13.39 13.39 0 0 0 5.22 4.46 16.73 16.73 0 0 0 7.47 1.62 14.87 14.87 0 0 0 6.18-1.25 13.06 13.06 0 0 0 4.62-3.5 12 12 0 0 0 1.8-3v4.07a3.66 3.66 0 0 0 .83 2.58 3.13 3.13 0 0 0 2.42.93 2.91 2.91 0 0 0 2.3-.93 3.84 3.84 0 0 0 .78-2.58v-22.6a20.62 20.62 0 0 0-1.7-8.89ZM277 41.93a13.28 13.28 0 0 1-1.46 6.35 11.24 11.24 0 0 1-4 4.34 11 11 0 0 1-5.89 1.58 9.28 9.28 0 0 1-6.47-2.16 7.3 7.3 0 0 1-2.37-5.6 5.68 5.68 0 0 1 1.54-4.25q1.54-1.5 5.42-2.13a70.39 70.39 0 0 1 10.65-.62H277ZM115.79 74.93a4.49 4.49 0 0 1-3.25-1.13 4 4 0 0 1-1.17-3 3.87 3.87 0 0 1 1.17-3 5.68 5.68 0 0 1 6.55 0 4 4 0 0 1 1.12 3 4.12 4.12 0 0 1-1.12 3 4.47 4.47 0 0 1-3.3 1.13Zm0 50.72a3.14 3.14 0 0 1-2.5-1 4 4 0 0 1-.83-2.71V87.82a3.82 3.82 0 0 1 .83-2.67 3.19 3.19 0 0 1 2.5-.92 3.38 3.38 0 0 1 2.51.92 3.62 3.62 0 0 1 .91 2.67v34.11a3.89 3.89 0 0 1-.87 2.71 3.3 3.3 0 0 1-2.55.97ZM213.48 117.14a2.27 2.27 0 0 0-1.54-.58 3.72 3.72 0 0 0-2.13.71 18.7 18.7 0 0 1-5.46 2.5 21.67 21.67 0 0 1-5.63.75c-4.57 0-8.08-1.34-10.56-4-2.22-2.39-3.45-5.79-3.67-10.17h27.66a3.29 3.29 0 0 0 2.16-.62 2.44 2.44 0 0 0 .76-2 26.4 26.4 0 0 0-1.21-8.25 17.51 17.51 0 0 0-3.51-6.26 15 15 0 0 0-5.55-4 18.42 18.42 0 0 0-7.33-1.29 19.18 19.18 0 0 0-10.14 2.66 18.76 18.76 0 0 0-6.88 7.34 23.29 23.29 0 0 0-2.51 11.06 23 23 0 0 0 2.55 11.18 17.74 17.74 0 0 0 7.17 7.22 22.6 22.6 0 0 0 11.06 2.54 26.89 26.89 0 0 0 7.43-1.09 20.5 20.5 0 0 0 6.5-3.09 3.42 3.42 0 0 0 1.46-1.58 2.68 2.68 0 0 0 .17-1.72 2.76 2.76 0 0 0-.8-1.31ZM186 96.28a12.24 12.24 0 0 1 4.46-5.42 12.78 12.78 0 0 1 7.22-2 11.4 11.4 0 0 1 6.32 1.71 10.5 10.5 0 0 1 3.89 4.8 18.31 18.31 0 0 1 1.3 6.54h-24.62a18.83 18.83 0 0 1 1.43-5.63Z"/><path d="m103.44 115.59-43.67-99a9.43 9.43 0 0 0-3.25-4.5 7.68 7.68 0 0 0-8.7 0 10.38 10.38 0 0 0-3.4 4.5l-43.5 99a8.8 8.8 0 0 0-.88 4.5 4.54 4.54 0 0 0 1.75 3.17 6.3 6.3 0 0 0 4 1.18 6 6 0 0 0 4.11-1.41 14 14 0 0 0 3-4.44l10.16-23.73h58.07l10.28 23.73a10.57 10.57 0 0 0 2.85 4.34 6.77 6.77 0 0 0 4.58 1.5 6.36 6.36 0 0 0 4-1.1 4.44 4.44 0 0 0 1.66-3.16 8.31 8.31 0 0 0-1.06-4.58ZM27.82 83.93l24.2-57h.31l24.21 57Z" fill="#ffd500"/></svg>