<svg version="1.1" id="Calque_1" xmlns="http://www.w3.org/2000/svg" x="0" y="0" viewBox="0 0 167.7 158" xml:space="preserve"><style>.st0{fill:#F9FAFA}</style><path class="st0" d="M151.7 133.2c-15.4 47.6-35.6 12-60.5 11.1-33.9-1.2-33 23.1-49.3-1.5-14.7-22.3-13.9-26.4 1.6-40.4C56.9 90.3 56.7 67 92.2 69.9c23.3 1.9 28.1 19.3 41.7 31.2 16.5 14.5 22.2 18.7 17.8 32.1zM35.8 62.9c1.8 15.1.9 27.6-14.4 29.5-9.8 1.2-19.2-10-21.1-25.1s3.6-27.3 18-31.4c6.4-1.8 15.7 11.9 17.5 27zM74.8 26.4c6 22.9-2.4 26.9-11.7 30.9-12.1 5.2-21.6-5.5-25-20.3S40.7 3 50.5.6C66.3-3.2 71 11.7 74.8 26.4zM167.7 75.8c0 15.2-4.1 22.4-13.5 22.4-11.9 0-21.9-6.5-21.9-21.7s4.1-31.6 11.5-31.6c11.9 0 23.9 15.7 23.9 30.9zM123.5 30.5c1.7 20.3-2.9 27.5-18.3 27.5C92.2 58 87 45.7 87 30.5S88 3 105.2 3c10.1 0 17 12.4 18.3 27.5z"/></svg>